<?xml version="1.0" standalone="no"?>
<!DOCTYPE svg PUBLIC "-//W3C//DTD SVG 20010904//EN"
 "http://www.w3.org/TR/2001/REC-SVG-20010904/DTD/svg10.dtd">
<svg version="1.0" xmlns="http://www.w3.org/2000/svg"
 width="550.000000pt" height="550.000000pt" viewBox="0 0 550.000000 550.000000"
 preserveAspectRatio="xMidYMid meet">
<metadata>
Created by potrace 1.14, written by Peter Selinger 2001-2017
</metadata>
<g transform="translate(0.000000,550.000000) scale(0.100000,-0.100000)"
fill="#000000" stroke="none">
<path d="M2182 5031 c-113 -33 -197 -105 -258 -221 l-29 -55 -3 -1623 c-2
-1358 0 -1627 12 -1655 13 -31 85 -121 430 -531 83 -98 184 -220 224 -270 98
-123 115 -136 177 -136 75 0 108 27 246 195 67 83 136 166 153 186 17 19 49
57 71 84 22 27 47 56 55 65 8 8 33 38 55 65 59 74 186 225 218 260 15 16 37
48 47 71 20 40 20 62 18 1660 l-3 1619 -27 57 c-51 110 -162 203 -275 232 -52
14 -137 16 -554 15 -445 0 -500 -2 -557 -18z m1069 -266 c24 -17 57 -50 74
-73 25 -37 30 -55 33 -116 l4 -73 -32 -5 c-18 -3 -295 -6 -616 -7 l-584 -2 0
71 c0 111 40 181 125 221 38 18 68 19 497 16 l456 -2 43 -30z m72 -521 l37 -7
0 -113 0 -114 -620 0 -620 0 0 113 c0 63 3 117 7 120 8 9 1145 9 1196 1z
m-999 -489 c3 -9 5 -424 3 -923 l-2 -907 -90 -67 c-49 -37 -93 -68 -96 -68 -4
0 -9 12 -12 28 -8 39 -9 1937 0 1945 3 4 48 7 99 7 73 0 93 -3 98 -15z m616
-955 l0 -961 -32 17 c-17 9 -60 34 -95 55 -35 21 -68 39 -74 39 -6 0 -51 -25
-100 -55 -49 -30 -91 -55 -94 -55 -3 0 -5 432 -5 960 l0 960 200 0 200 0 0
-960z m415 -14 c0 -701 -3 -970 -11 -973 -6 -2 -48 24 -93 58 l-81 61 0 907
c0 499 3 911 7 915 4 4 46 5 93 4 l85 -3 0 -969z m-371 -1246 l38 -23 63 69
62 69 39 -28 c21 -14 52 -37 69 -51 28 -22 28 -24 13 -47 -21 -30 -276 -329
-333 -390 l-43 -46 -117 -1 c-64 0 -119 -3 -123 -6 -3 -3 -20 -6 -38 -6 -26 0
-41 10 -78 51 -25 28 -46 57 -46 64 0 7 -66 91 -146 186 l-146 173 38 33 c22
18 54 40 71 50 l33 17 63 -69 64 -70 138 92 138 91 101 -67 c56 -37 118 -78
140 -91z"/>
</g>
</svg>
